<svg t="1729763916221" class="icon" viewBox="0 0 1024 1024" version="1.1"
    xmlns="http://www.w3.org/2000/svg" p-id="1942" width="200" height="200">
    <path
        d="M351.267 469.273c-88.398 0-160.06 71.662-160.06 160.057 0 88.399 71.662 160.053 160.06 160.053 88.395 0 160.058-71.653 160.058-160.053-0.102-88.358-71.707-159.955-160.058-160.057z m97.12 160.057c0 53.638-43.484 97.121-97.12 97.121-53.639 0-97.123-43.483-97.123-97.121 0-53.64 43.483-97.126 97.123-97.126 53.611 0.067 97.05 43.513 97.12 97.126z m0 0"
        p-id="1943"></path>
    <path
        d="M570.104 815.313l-104.04-117.102c-11.677-12.954-31.643-14.001-44.606-2.325-12.958 11.681-13.998 31.648-2.321 44.61L522.712 857.01a30.662 30.662 0 0 0 23.613 10.962 31.488 31.488 0 0 0 21.463-8.326c12.467-11.797 13.486-31.301 2.316-44.333z m0 0"
        p-id="1944"></path>
    <path
        d="M656.232 294.356a48.277 48.277 0 0 1 34.139 14.142 48.277 48.277 0 0 1 14.142 34.139V974.48a48.288 48.288 0 0 1-14.142 34.139 48.294 48.294 0 0 1-34.139 14.137h-555.25a48.29 48.29 0 0 1-34.134-14.137 48.288 48.288 0 0 1-14.142-34.139V342.652a48.274 48.274 0 0 1 48.276-48.277h555.25v-0.019z m-519.034 84.493v559.418h482.823V378.863H137.198v-0.014z m0 0"
        p-id="1945"></path>
    <path
        d="M764.853 234.032c0-13.335-10.807-24.146-24.143-24.146H188.509c11.021-42.64 49.484-72.428 93.521-72.423h458.68a96.584 96.584 0 0 1 96.585 96.584v603.525c0 44.037-29.789 82.501-72.423 93.521V234.032h-0.019z m0 0"
        p-id="1946"></path>
    <path
        d="M897.639 101.216a24.146 24.146 0 0 0-24.147-24.147H321.293C332.311 34.43 370.774 4.646 414.81 4.646h458.696c53.344 0 96.585 43.241 96.585 96.585v603.524c0.005 44.044-29.784 82.506-72.423 93.521v-697.06h-0.029z m0 0"
        p-id="1947"></path>
</svg>