<svg t="1730881925284" class="icon" viewBox="0 0 1024 1024" version="1.1"
    xmlns="http://www.w3.org/2000/svg" p-id="2137" width="200" height="200">
    <path d="M0 0h1024v1024H0z" fill="#FFFFFF" fill-opacity="0" p-id="2138"></path>
    <path
        d="M541.867 91.102l298.666 143.36c17.92 11.947 29.867 29.867 29.867 53.76v173.227c0 53.76-11.947 101.546-29.867 155.306-17.92 47.787-41.813 95.574-71.68 137.387A511.42 511.42 0 0 1 655.36 867.635c-41.813 29.867-89.6 47.787-143.36 59.734-53.76-11.947-101.547-29.867-143.36-59.734a511.42 511.42 0 0 1-113.493-113.493c-29.867-41.813-53.76-83.627-71.68-137.387-17.92-53.76-29.867-107.52-29.867-161.28V288.222c0-23.893 11.947-41.813 29.867-53.76l298.666-143.36a101.786 101.786 0 0 1 59.734 0z"
        fill="currentColor" p-id="2139"></path>
    <path
        d="M481.51119645 248.07939792l9.94205392 345.94148504h41.09349926l10.6046957-345.94148504h-61.64024888zM512 642.44834608a37.945344 37.945344 0 0 0-28.50087822 11.22607407c-7.95291497 7.29027318-11.26733748 16.56968533-11.26733748 27.83702281s3.31320889 20.54674963 11.26733748 28.50087822A40.63838815 40.63838815 0 0 0 512 721.32092208c11.26733748 0 21.20939141-3.9770643 29.16352-11.3086009a38.44293215 38.44293215 0 0 0 11.26733748-28.50087822 37.98660741 37.98660741 0 0 0-11.26733748-27.83823645c-7.95412859-7.95291497-17.89618252-11.22607408-29.16352-11.22607407z"
        fill="#FFFFFF" p-id="2140"></path>
</svg>