<svg xmlns="http://www.w3.org/2000/svg" xmlns:xlink="http://www.w3.org/1999/xlink" width="400"
    height="400" viewBox="0 0 400 400">
    <defs>
        <linearGradient id="gradient-17" x1="0%" y1="0%" x2="100%" y2="0%"
            gradientTransform="rotate(76.3, 0.5, 0.5)">
            <stop offset="12.6%" stop-color="rgba(44, 62, 78, 1)"></stop>
            <stop offset="82.8%" stop-color="rgba(69, 103, 131, 1)"></stop>
        </linearGradient>
    </defs>
    <g data-name="business_name" fill="url(#gradient-17)" data="id:303"
        transform="translate(18.23590618336887,148.99377398720682) scale(1.537091684434968)">
        <path
            d="M3.75,47.96875l0-30l3.90625,0l30.13671875,25.37109375l0.0390625,0l0-25.37109375l3.75,0l0,30l-3.90625,0l-30.13671875-25.5859375l-0.0390625,0l0,25.5859375l-3.75,0z M73.59375,41.2890625q0,2.51953125-0.751953125,3.96484375t-2.294921875,2.109375t-3.935546875,0.849609375t-5.693359375,0.185546875q-3.76953125,0-6.396484375-0.380859375t-4.23828125-1.5625t-2.34375-3.544921875t-0.732421875-6.30859375q0-3.828125,0.712890625-6.1328125t2.314453125-3.4765625t4.208984375-1.5625t6.376953125-0.390625q4.31640625,0,7.1484375,0.60546875t4.228515625,2.3046875t1.396484375,4.98046875l0,4.82421875l-22.6171875,0q0.01953125,2.5,0.3515625,4.00390625t1.328125,2.265625t2.978515625,1.005859375t5.283203125,0.244140625q2.96875,0,4.794921875-0.1171875t2.7734375-0.517578125t1.279296875-1.201171875t0.33203125-2.1484375l3.49609375,0z M60.8203125,28.1640625q-3.18359375,0-5.126953125,0.234375t-2.958984375,0.908203125t-1.376953125,2.001953125t-0.380859375,3.49609375l19.0234375,0l0-1.875q0-1.40625-0.322265625-2.333984375t-1.259765625-1.46484375t-2.763671875-0.751953125t-4.833984375-0.21484375z M90,48.3984375q-4.4140625,0-6.953125-0.966796875t-3.61328125-3.2421875t-1.07421875-6.220703125l0-12.5l3.76953125,0l0,12.5q0,2.2265625,0.361328125,3.662109375t1.279296875,2.2265625t2.587890625,1.103515625t4.306640625,0.3125q3.90625,0,6.1328125-0.64453125t3.154296875-2.021484375t0.927734375-3.583984375l0-13.5546875l3.75,0l0,22.5l-3.75,0l0-2.98828125q-0.8203125,1.1328125-2.0703125,1.89453125t-3.33984375,1.142578125t-5.46875,0.380859375z M110.09765625,47.96875l0-22.5l3.75,0l0,3.10546875q0.625-0.99609375,1.259765625-1.66015625t1.66015625-1.0546875t2.783203125-0.556640625t4.62890625-0.166015625l0,3.14453125q-3.8671875,0-5.986328125,0.2734375t-3.037109375,0.927734375t-1.11328125,1.806640625t-0.1953125,2.9296875l0,13.75l-3.75,0z M142.109375,48.3984375q-3.76953125,0-6.40625-0.380859375t-4.2578125-1.5625t-2.36328125-3.544921875t-0.7421875-6.30859375q0-3.828125,0.7421875-6.1328125t2.36328125-3.4765625t4.2578125-1.5625t6.40625-0.390625q3.7890625,0,6.416015625,0.390625t4.248046875,1.5625t2.36328125,3.4765625t0.7421875,6.1328125q0,3.9453125-0.7421875,6.30859375t-2.36328125,3.544921875t-4.248046875,1.5625t-6.416015625,0.380859375z M152.12890625,36.6015625q0-2.79296875-0.283203125-4.47265625t-1.240234375-2.529296875t-2.978515625-1.142578125t-5.517578125-0.29296875q-3.4765625,0-5.5078125,0.29296875t-2.98828125,1.142578125t-1.240234375,2.529296875t-0.283203125,4.47265625q0,2.890625,0.283203125,4.62890625t1.240234375,2.607421875t2.98828125,1.15234375t5.5078125,0.283203125q3.49609375,0,5.517578125-0.283203125t2.978515625-1.15234375t1.240234375-2.607421875t0.283203125-4.62890625z M175.25390625,47.96875l-16.171875-30l4.296875,0l14.375,27.34375l14.375-27.34375l4.23828125,0l-16.11328125,30l-5,0z M200.25390625,47.96875l0-21.25l3.75,0l0,21.25l-3.75,0z M200.25390625,21.71875l0-3.75l3.75,0l0,3.75l-3.75,0z M209.00390625,47.96875l0-3.125l19.00390625-16.484375l-17.75390625,0l0-2.890625l22.5,0l0,3.125l-18.73046875,16.4453125l18.73046875,0l0,2.9296875l-23.75,0z"></path>
        <rect x="0.75" y="14.96875" width="235.00390625" height="36.4296875" fill="transparent"
            pointer-events="all"></rect>
    </g>
</svg>