<svg xmlns="http://www.w3.org/2000/svg" xmlns:xlink="http://www.w3.org/1999/xlink" width="400"
    height="100%" viewBox="0 0 100% 100%">
    <defs>
        <linearGradient id="gradient-17" x1="0%" y1="0%" x2="100%" y2="0%"
            gradientTransform="rotate(76.3, 0.5, 0.5)">
            <stop offset="12.6%" stop-color="rgba(44, 62, 78, 1)"></stop>
            <stop offset="82.8%" stop-color="rgba(69, 103, 131, 1)"></stop>
        </linearGradient>
    </defs>
    <g data-name="business_name" fill="url(#gradient-17)" data="id:303"
        transform="translate(26.737580553063054,134.51783060238023) scale(1.4033118525165185)">
        <path
            d="M3.75,47.96875l0-30l3.90625,0l30.13671875,25.37109375l0.0390625,0l0-25.37109375l3.75,0l0,30l-3.90625,0l-30.13671875-25.5859375l-0.0390625,0l0,25.5859375l-3.75,0z M59.39453125,48.3984375q-4.4140625,0-6.953125-0.966796875t-3.61328125-3.2421875t-1.07421875-6.220703125l0-12.5l3.76953125,0l0,12.5q0,2.2265625,0.361328125,3.662109375t1.279296875,2.2265625t2.587890625,1.103515625t4.306640625,0.3125q3.90625,0,6.1328125-0.64453125t3.154296875-2.021484375t0.927734375-3.583984375l0-13.5546875l3.75,0l0,22.5l-3.75,0l0-2.98828125q-0.8203125,1.1328125-2.0703125,1.89453125t-3.33984375,1.142578125t-5.46875,0.380859375z M104.86328125,41.2890625q0,2.51953125-0.751953125,3.96484375t-2.294921875,2.109375t-3.935546875,0.849609375t-5.693359375,0.185546875q-3.76953125,0-6.396484375-0.380859375t-4.23828125-1.5625t-2.34375-3.544921875t-0.732421875-6.30859375q0-3.828125,0.712890625-6.1328125t2.314453125-3.4765625t4.208984375-1.5625t6.376953125-0.390625q4.31640625,0,7.1484375,0.60546875t4.228515625,2.3046875t1.396484375,4.98046875l0,4.82421875l-22.6171875,0q0.01953125,2.5,0.3515625,4.00390625t1.328125,2.265625t2.978515625,1.005859375t5.283203125,0.244140625q2.96875,0,4.794921875-0.1171875t2.7734375-0.517578125t1.279296875-1.201171875t0.33203125-2.1484375l3.49609375,0z M92.08984375,28.1640625q-3.18359375,0-5.126953125,0.234375t-2.958984375,0.908203125t-1.376953125,2.001953125t-0.380859375,3.49609375l19.0234375,0l0-1.875q0-1.40625-0.322265625-2.333984375t-1.259765625-1.46484375t-2.763671875-0.751953125t-4.833984375-0.21484375z M110.09765625,47.96875l0-22.5l3.75,0l0,3.10546875q0.625-0.99609375,1.259765625-1.66015625t1.66015625-1.0546875t2.783203125-0.556640625t4.62890625-0.166015625l0,3.14453125q-3.8671875,0-5.986328125,0.2734375t-3.037109375,0.927734375t-1.11328125,1.806640625t-0.1953125,2.9296875l0,13.75l-3.75,0z M140.83984375,48.3984375q-4.04296875,0-6.669921875-0.419921875t-3.90625-1.845703125t-1.279296875-4.43359375q0-3.06640625,1.201171875-4.501953125t3.80859375-1.865234375t6.845703125-0.4296875q3.4375,0,5.76171875,0.15625t4.16015625,0.546875q-0.0390625-2.59765625-0.3515625-4.091796875t-1.171875-2.216796875t-2.509765625-0.927734375t-4.384765625-0.205078125q-3.125,0-4.892578125,0.13671875t-2.568359375,0.48828125t-1.005859375,1.015625t-0.205078125,1.71875l-3.75,0q0-2.109375,0.576171875-3.3984375t1.962890625-1.953125t3.798828125-0.8984375t6.083984375-0.234375q3.9453125,0,6.357421875,0.5078125t3.671875,1.826171875t1.69921875,3.681640625t0.439453125,6.09375l0,10.8203125l-3.75,0l0-1.54296875q-0.6640625,0.703125-1.8359375,1.1328125t-3.115234375,0.634765625t-4.970703125,0.205078125z M140.83984375,45.3515625q3.33984375,0,5.33203125-0.078125t2.978515625-0.4296875t1.298828125-1.1328125t0.3125-2.1875l0-3.45703125l-9.921875-0.1171875q-2.63671875-0.0390625-4.248046875,0.068359375t-2.451171875,0.46875t-1.123046875,1.1328125t-0.283203125,2.080078125q0,1.26953125,0.283203125,2.01171875t1.123046875,1.09375t2.451171875,0.44921875t4.248046875,0.09765625z M160.68359375,47.96875l0-30l3.75,0l0,30l-3.75,0z M185.68359375,47.96875l-16.171875-30l4.296875,0l14.375,27.34375l14.375-27.34375l4.23828125,0l-16.11328125,30l-5,0z M210.68359375,47.96875l0-21.25l3.75,0l0,21.25l-3.75,0z M210.68359375,21.71875l0-3.75l3.75,0l0,3.75l-3.75,0z M219.43359375,47.96875l0-3.125l19.00390625-16.484375l-17.75390625,0l0-2.890625l22.5,0l0,3.125l-18.73046875,16.4453125l18.73046875,0l0,2.9296875l-23.75,0z"></path>
    </g>
</svg>